<?xml version="1.0" encoding="utf-8"?>
<!-- Generator: Adobe Illustrator 23.0.0, SVG Export Plug-In . SVG Version: 6.00 Build 0)  -->
<svg version="1.1" id="Layer_1" xmlns="http://www.w3.org/2000/svg" xmlns:xlink="http://www.w3.org/1999/xlink" x="0px" y="0px"
	 viewBox="0 0 512 512" style="enable-background:new 0 0 512 512;" xml:space="preserve">
<path d="M210.09,319.8c23.1,0,41.9-18.8,41.9-41.9c0-23.11-18.8-41.9-41.9-41.9c-23.11,0-41.9,18.8-41.9,41.9
	C168.18,301.01,186.98,319.8,210.09,319.8z M210.09,256.14c12,0,21.76,9.76,21.76,21.76c0,12-9.76,21.76-21.76,21.76
	c-12.01,0-21.77-9.76-21.77-21.76C188.32,265.9,198.08,256.14,210.09,256.14z"/>
<path d="M85.44,295.37c-5.01,5.62-5.27,13.98-0.63,19.88c4.93,6.27,6.01,14.42,2.89,21.81c-5.51,13.04-20.67,16.81-31.48,10.09
	c-6.3-3.91-14.46-2.73-19.39,2.81l-13.24,14.89c-9.75,10.95-5.77,28.28,7.79,33.88l168.86,69.69c2.12,0.89,4.6,1.04,6.98,0.26
	c0.01-0.01,0.02-0.01,0.03-0.01l263.89-87.59c12.76-4.24,21.32-16.11,21.32-29.54v-62.2c0-5.56-4.5-10.07-10.07-10.07
	c-5.56,0-10.07,4.51-10.07,10.07v62.2c0,4.74-3.03,8.94-7.53,10.43l-40.18,13.34c-5.55-16.64-21.27-28.66-39.74-28.66
	c-23.1,0-41.9,18.79-41.9,41.9c0,4.53,0.72,8.96,2.12,13.16L236.6,437.7l235.72-264.81v69.45c0,5.56,4.5,10.07,10.07,10.07
	c5.56,0,10.07-4.5,10.07-10.07v-95.9c0-3.95-2.42-7.73-6.23-9.31L312.6,65.48c-9.86-4.07-21.24-1.45-28.32,6.51L85.44,295.37z
	 M384.87,366.77c9.59,0,17.75,6.23,20.64,14.87l-41.3,13.71c-0.73-2.18-1.1-4.48-1.1-6.82
	C363.11,376.53,372.87,366.77,384.87,366.77z M386.88,117.91c-4.02,10.9-14.44,18.46-26.61,18.46c-20.64,0-34.35-21.47-25.84-40.1
	L386.88,117.91z M38.63,378.24l10.63-11.94c21.39,10.52,47.53,1.01,56.99-21.4c5.5-13.02,4.22-27.28-3.32-38.89L299.32,85.37
	c1.4-1.57,3.66-2.09,5.6-1.29l10.93,4.51c-14.07,32.23,9.75,67.91,44.42,67.91c20.54,0,38.19-12.63,45.23-30.91l59.94,24.74
	L201.3,447.07L39.06,380.11C38.3,379.8,38.08,378.85,38.63,378.24z"/>
<path d="M316.22,266.35c16.37,0,29.69-13.32,29.69-29.69c0-16.37-13.32-29.69-29.69-29.69c-16.37,0-29.69,13.32-29.69,29.69
	C286.53,253.03,299.85,266.35,316.22,266.35z M316.22,227.1c5.27,0,9.56,4.29,9.56,9.55c0,5.27-4.29,9.56-9.56,9.56
	c-5.26,0-9.55-4.29-9.55-9.56C306.67,231.39,310.96,227.1,316.22,227.1z"/>
<path d="M213.51,379.34c0-16.37-13.32-29.69-29.69-29.69s-29.69,13.32-29.69,29.69c0,16.37,13.32,29.69,29.69,29.69
	S213.51,395.71,213.51,379.34z M183.82,388.89c-5.27,0-9.55-4.29-9.55-9.55c0-5.27,4.28-9.56,9.55-9.56c5.27,0,9.55,4.29,9.55,9.56
	S189.09,388.89,183.82,388.89z"/>
</svg>
