<?xml version="1.0"?>
<svg xmlns="http://www.w3.org/2000/svg" xmlns:xlink="http://www.w3.org/1999/xlink" version="1.1" id="Capa_1" x="0px" y="0px" viewBox="0 0 512 512" style="enable-background:new 0 0 512 512;" xml:space="preserve" width="512px" height="512px" class=""><g><g>
	<g>
		<path d="M463.134,212.317c0-43.589-35.463-79.051-79.051-79.051c-26.323,0-49.666,12.944-64.042,32.789    c-7.211-9.954-16.678-18.163-27.65-23.88c0.095,0,0.194,0.005,0.289,0.005c20.065,0,36.655-4.84,49.411-14.434    c14.767-11.107,24.911-29.135,30.151-53.584c3.675-17.15,3.506-31.458,3.497-32.06l-0.163-10.931l-10.454-3.198    c-0.566-0.173-14.066-4.255-31.36-5.419c-24.619-1.659-44.583,3.13-59.337,14.227c-5.321,4.003-10.022,8.909-14.111,14.669    L234.78,0l-26.89,13.345l33.536,67.577v53.714c-20.258,3.793-37.81,15.33-49.467,31.419    c-14.375-19.845-37.718-32.789-64.042-32.789c-43.589,0-79.051,35.462-79.051,79.051c0,40.831,31.118,74.529,70.883,78.63    c-4.384,9.819-6.841,20.679-6.841,32.109c0,40.706,30.93,74.315,70.521,78.584c-4.161,9.607-6.479,20.191-6.479,31.309    C176.949,476.538,212.411,512,256,512c43.589,0,79.051-35.462,79.051-79.051c0-11.118-2.318-21.702-6.479-31.309    c39.591-4.269,70.521-37.878,70.521-78.584c0-11.429-2.458-22.289-6.841-32.109C432.017,286.846,463.134,253.148,463.134,212.317z     M292.47,60.774c13.964-10.503,37.329-9.345,52.659-6.662c-1.622,15.765-6.961,39.022-21.082,49.643    c-13.942,10.486-37.137,9.205-52.317,6.438C273.263,94.513,278.462,71.31,292.47,60.774z M256,163.285    c27.037,0,49.032,21.995,49.032,49.032c0,27.037-21.995,49.032-49.032,49.032c-27.037,0-49.032-21.995-49.032-49.032    C206.968,185.28,228.963,163.285,256,163.285z M127.917,261.349c-27.036,0-49.032-21.995-49.032-49.032    c0-27.036,21.995-49.032,49.032-49.032c27.037,0,49.032,21.995,49.032,49.032C176.949,239.353,154.953,261.349,127.917,261.349z     M191.958,372.088c-27.037,0-49.032-21.995-49.032-49.032c0-17.167,8.875-32.292,22.27-41.054c1.506-0.809,2.977-1.67,4.423-2.572    c6.704-3.447,14.295-5.407,22.339-5.407c8.043,0,15.634,1.959,22.338,5.407c1.446,0.902,2.917,1.763,4.423,2.572    c13.396,8.762,22.27,23.886,22.27,41.054c0,15.491-7.229,29.317-18.481,38.309c-4.306,2.022-8.393,4.426-12.235,7.161    C204.612,370.815,198.432,372.088,191.958,372.088z M256,481.981c-27.036,0-49.032-21.995-49.032-49.032    s21.995-49.032,49.032-49.032c27.037,0,49.032,21.995,49.032,49.032S283.037,481.981,256,481.981z M320.042,372.087    c-6.474,0-12.653-1.273-18.316-3.562c-3.841-2.734-7.929-5.138-12.235-7.161c-11.252-8.992-18.481-22.818-18.481-38.309    c0-17.167,8.875-32.291,22.27-41.054c1.506-0.809,2.977-1.67,4.423-2.572c6.704-3.447,14.295-5.406,22.339-5.406    s15.634,1.959,22.338,5.407c1.446,0.902,2.917,1.763,4.423,2.572c13.396,8.763,22.27,23.887,22.27,41.054    C369.073,350.092,347.078,372.087,320.042,372.087z M384.083,261.348c-27.037,0-49.032-21.995-49.032-49.032    c0-27.036,21.995-49.032,49.032-49.032s49.032,21.995,49.032,49.032C433.115,239.353,411.12,261.348,384.083,261.348z" data-original="#000000" class="active-path" data-old_color="#F0EAEA" fill="#FBF9F9"/>
	</g>
</g></g> </svg>
