<?xml version="1.0" encoding="utf-8"?>
<!-- Generator: Adobe Illustrator 23.0.1, SVG Export Plug-In . SVG Version: 6.00 Build 0)  -->
<svg version="1.1" id="Calque_1" xmlns="http://www.w3.org/2000/svg" xmlns:xlink="http://www.w3.org/1999/xlink" x="0px" y="0px"
	 viewBox="0 0 600 600" style="enable-background:new 0 0 600 600;" xml:space="preserve">
<style type="text/css">
	.st0{fill:#A85DE7; mix-blend-mode: multiply;}
	.st1{fill:#F5AF32; mix-blend-mode: multiply;}
	.st2{fill:#CEB199; mix-blend-mode: multiply;}
	.st3{fill:#99C220;}
	.st4{fill:#E94578; mix-blend-mode: multiply;}
	.st5{fill:#45A9E0; mix-blend-mode: multiply;}
</style>
<g>
	<g>
		<path class="st0" d="M170.3,229.5c16.4,0,29.7,13.3,29.7,29.7S186.7,289,170.3,289s-29.7-13.3-29.7-29.7S153.9,229.5,170.3,229.5
			 M170.3,164.5c-52.3,0-94.7,42.4-94.7,94.7S118,354,170.3,354s94.7-42.4,94.7-94.7S222.6,164.5,170.3,164.5L170.3,164.5z"/>
	</g>
	<g>
		<path class="st1" d="M431.7,229.5c16.4,0,29.7,13.3,29.7,29.7S448.1,289,431.7,289S402,275.6,402,259.3S415.3,229.5,431.7,229.5
			 M431.7,164.5c-52.3,0-94.7,42.4-94.7,94.7s42.4,94.7,94.7,94.7s94.7-42.4,94.7-94.7S484,164.5,431.7,164.5L431.7,164.5z"/>
	</g>
	<g>
		<path class="st2" d="M363.5,335.6c16.4,0,29.7,13.3,29.7,29.7S379.9,395,363.5,395s-29.7-13.3-29.7-29.7S347.1,335.6,363.5,335.6
			 M363.5,270.6c-52.3,0-94.7,42.4-94.7,94.7s42.4,94.7,94.7,94.7s94.7-42.4,94.7-94.7S415.8,270.6,363.5,270.6L363.5,270.6z"/>
	</g>
	<g>
		<path class="st3" d="M278.3,114.9c-0.8,0-1.5-0.7-1.5-1.5V49c0-0.8,0.7-1.5,1.5-1.5h41.7c0.8,0,1.5,0.7,1.5,1.5v64.4
			c0,0.8-0.7,1.5-1.5,1.5H278.3z"/>
		<path class="st3" d="M319.9,49v64.4h-41.7V49H319.9 M319.9,46h-41.7c-1.7,0-3,1.3-3,3v64.4c0,1.7,1.3,3,3,3h41.7c1.7,0,3-1.3,3-3
			V49C322.9,47.3,321.6,46,319.9,46L319.9,46z"/>
	</g>
	<g>
		<path class="st4" d="M236.6,335.6c16.4,0,29.7,13.3,29.7,29.7S253,395,236.6,395s-29.7-13.3-29.7-29.7S220.2,335.6,236.6,335.6
			 M236.6,270.6c-52.3,0-94.7,42.4-94.7,94.7s42.4,94.7,94.7,94.7s94.7-42.4,94.7-94.7S288.9,270.6,236.6,270.6L236.6,270.6z"/>
	</g>
	<g>
		<path class="st5" d="M301,443.6c16.4,0,29.7,13.3,29.7,29.7S317.4,503,301,503s-29.7-13.3-29.7-29.7S284.6,443.6,301,443.6
			 M301,378.6c-52.3,0-94.7,42.4-94.7,94.7S248.7,568,301,568s94.7-42.4,94.7-94.7S353.3,378.6,301,378.6L301,378.6z"/>
	</g>
	<g>
		<path class="st3" d="M299.1,170.8c16.4,0,29.7,13.3,29.7,29.7s-13.3,29.7-29.7,29.7s-29.7-13.3-29.7-29.7S282.7,170.8,299.1,170.8
			 M299.1,105.8c-52.3,0-94.7,42.4-94.7,94.7s42.4,94.7,94.7,94.7s94.7-42.4,94.7-94.7S351.4,105.8,299.1,105.8L299.1,105.8z"/>
	</g>
</g>
</svg>
