<?xml version="1.0"?>
<svg xmlns="http://www.w3.org/2000/svg" height="512px" viewBox="0 0 480 479" width="512px" class=""><g><path d="m408 .5h-336c-39.746094.042969-71.9570312 32.253906-72 72v256c.0429688 39.746094 32.253906 71.957031 72 72h20.183594l-27.617188 69.03125c-1.207031 3.058594-.421875 6.539062 1.976563 8.785156 2.398437 2.246094 5.929687 2.792969 8.898437 1.382813l166.398438-79.199219h166.160156c39.746094-.042969 71.957031-32.253906 72-72v-256c-.042969-39.746094-32.253906-71.957031-72-72zm56 328c-.035156 30.914062-25.085938 55.964844-56 56h-168c-1.191406.007812-2.367188.28125-3.441406.800781l-149.535156 71.199219 24.410156-61.015625c.988281-2.46875.691406-5.265625-.796875-7.46875-1.492188-2.199219-3.976563-3.519531-6.636719-3.515625h-32c-30.914062-.035156-55.964844-25.085938-56-56v-256c.035156-30.914062 25.085938-55.964844 56-56h336c30.914062.035156 55.964844 25.085938 56 56zm0 0" data-original="#000000" class="active-path" data-old_color="#CD8C8C" fill="#FFFFFF"/><path d="m363.105469 144.5h-70.792969c-3.464844 0-6.535156-2.226562-7.609375-5.519531l-21.871094-67.335938c-3.207031-9.898437-12.425781-16.605469-22.832031-16.605469s-19.625 6.707032-22.832031 16.605469l-21.871094 67.335938c-1.074219 3.292969-4.144531 5.519531-7.609375 5.519531h-70.792969c-10.398437-.003906-19.613281 6.691406-22.828125 16.582031-3.214844 9.886719.304688 20.722657 8.71875 26.832031l57.269532 41.601563c2.8125 2.035156 3.988281 5.652344 2.914062 8.953125l-21.878906 67.328125c-3.214844 9.890625.304687 20.722656 8.71875 26.835937 8.410156 6.109376 19.804687 6.109376 28.214844-.003906l57.273437-41.601562c2.804687-2.039063 6.601563-2.039063 9.40625 0l57.273437 41.601562c8.375 6.226563 19.839844 6.226563 28.214844 0 8.507813-6.042968 12.050782-16.945312 8.71875-26.832031l-21.878906-67.335937c-1.070312-3.296876.105469-6.910157 2.914062-8.945313l57.269532-41.601563c8.414062-6.109374 11.933594-16.945312 8.71875-26.832031-3.214844-9.890625-12.429688-16.585937-22.828125-16.582031zm4.703125 30.480469-57.273438 41.597656c-8.425781 6.097656-11.953125 16.941406-8.71875 26.824219l21.871094 67.328125c1.082031 3.300781-.082031 6.917969-2.886719 8.964843-2.804687 2.042969-6.609375 2.046876-9.417969.003907l-57.269531-41.597657c-8.410156-6.136718-19.816406-6.136718-28.226562 0l-57.269531 41.597657c-2.804688 2.035156-6.601563 2.03125-9.40625-.007813-2.800782-2.039062-3.972657-5.648437-2.898438-8.945312l21.871094-67.316406c3.234375-9.890626-.289063-20.734376-8.71875-26.832032l-57.273438-41.601562c-2.824218-2.03125-4.015625-5.65625-2.941406-8.964844s4.167969-5.546875 7.644531-5.53125h70.792969c10.40625.023438 19.632812-6.683594 22.824219-16.585938l21.878906-67.324218c1.082031-3.285156 4.144531-5.503906 7.601563-5.503906 3.457031 0 6.519531 2.21875 7.601562 5.503906l21.878906 67.335937c3.199219 9.902344 12.429688 16.605469 22.839844 16.574219h70.792969c3.46875-.003906 6.546875 2.226562 7.621093 5.527344 1.070313 3.300781-.105468 6.917968-2.917968 8.953125zm0 0" data-original="#000000" class="active-path" data-old_color="#CD8C8C" fill="#FFFFFF"/></g> </svg>
