<svg height="511pt" viewBox="0 -80 511.99958 511" width="511pt" xmlns="http://www.w3.org/2000/svg"><path d="m511.675781 294.410156c-.957031-3.160156-3.871093-5.324218-7.175781-5.324218h-78.667969c22.960938-15.632813 38.070313-41.980469 38.070313-71.789063 0-18.835937-5.945313-36.769531-17.199219-51.859375-9.570313-12.839844-22.203125-22.582031-36.84375-28.515625 1.34375-2.199219 2.953125-4.257813 4.8125-6.121094l35.976563-35.972656c.191406-.191406.417968-.296875.554687-.335937 9.03125 4.414062 19.84375 2.609374 26.964844-4.507813 4.445312-4.445313 6.894531-10.355469 6.894531-16.640625 0-6.289062-2.449219-12.195312-6.894531-16.640625-4.226563-4.226563-9.910157-6.65625-15.800781-6.875-.21875-5.886719-2.648438-11.574219-6.871094-15.796875-9.175782-9.175781-24.105469-9.175781-33.28125 0-7.121094 7.117188-8.921875 17.933594-4.511719 26.964844-.035156.132812-.140625.359375-.332031.550781l-35.976563 35.976563c-5.835937 5.835937-13.566406 9.214843-21.761719 9.515624-4.777343.171876-9.820312.359376-15.03125.65625.078126-.117187.140626-.238281.214844-.351562l5.355469-8.003906 22.9375-34.28125c.152344-.226563.351563-.375.476563-.433594 9.714843 2.570312 19.972656-1.300781 25.574218-9.671875 7.214844-10.785156 4.308594-25.429687-6.476562-32.644531-4.964844-3.320313-11.011719-4.597656-16.832032-3.667969-1.363281-5.734375-4.851562-10.839844-9.816406-14.160156-5.226562-3.496094-11.5-4.746094-17.664062-3.523438-6.164063 1.222657-11.484375 4.773438-14.980469 9.996094-5.597656 8.371094-5.261719 19.328125.820313 27.328125-.007813.136719-.066407.382812-.21875.605469l-28.292969 42.289062c-4.585938 6.859375-11.511719 11.675781-19.496094 13.566407-11.382813 2.691406-22.519531 5.4375-33.488281 9.167968l-23.058594-4.613281c-44.769531-8.953125-90.695312 2.511719-126 31.457031-35.308594 28.945313-55.558594 71.730469-55.558594 117.386719 0 14.070313 2.914063 28.011719 8.480469 40.945313h-49.078125c-3.304688 0-6.21875 2.160156-7.175781 5.324218-.960938 3.164063.265625 6.582032 3.015625 8.414063l64.066406 42.714843c6.523438 4.347657 14.109375 6.644532 21.945312 6.644532h333.292969c7.835938 0 15.425781-2.296875 21.945313-6.644532l64.070312-42.714843c2.75-1.832031 3.972656-5.25 3.015625-8.414063zm-83.699219-222.253906c4.808594-4.8125 6.109376-11.914062 3.238282-17.679688-1.640625-3.285156-.992188-7.242187 1.605468-9.839843 3.328126-3.328125 8.742188-3.328125 12.066407 0 1.945312 1.945312 2.820312 4.621093 2.398437 7.34375-.5625 3.660156.582032 7.226562 3.144532 9.785156 2.5625 2.5625 6.125 3.710937 9.785156 3.144531 2.722656-.417968 5.402344.457032 7.347656 2.398438 1.609375 1.613281 2.496094 3.757812 2.496094 6.035156s-.886719 4.421875-2.496094 6.03125c-2.601562 2.601562-6.554688 3.246094-9.839844 1.609375-5.765625-2.871094-12.871094-1.574219-17.679687 3.234375l-23.859375 23.863281-12.066406-12.066406zm-81.519531-24.929688c3.78125-5.652343 3.675781-12.871093-.261719-17.96875-2.246093-2.902343-2.382812-6.910156-.335937-9.964843 1.265625-1.890625 3.195313-3.179688 5.429687-3.625 2.238282-.441407 4.511719.011719 6.40625 1.28125 2.285157 1.527343 3.664063 3.984375 3.78125 6.738281.160157 3.695312 1.976563 6.972656 4.984376 8.984375 3.011718 2.015625 6.734374 2.445313 10.210937 1.183594 2.589844-.945313 5.386719-.605469 7.671875.921875 3.910156 2.617187 4.960938 7.925781 2.347656 11.835937-2.042968 3.054688-5.800781 4.457031-9.339844 3.492188-6.214843-1.699219-12.929687.960937-16.710937 6.613281l-18.765625 28.046875-14.179688-9.488281zm-56.800781 62.113282c11.683594-2.765625 21.808594-9.804688 28.511719-19.824219l1.183593-1.773437 14.183594 9.488281-1.183594 1.773437c-2.132812 3.183594-3.859374 6.597656-5.164062 10.179688-8.089844.980468-16.3125 2.457031-24.339844 4.75l-17.660156-3.53125c1.484375-.355469 2.972656-.710938 4.46875-1.0625zm146.617188 223.714844c-4.050782 2.699218-8.761719 4.128906-13.628907 4.128906h-333.292969c-4.863281 0-9.574218-1.429688-13.625-4.125l-43.457031-28.972656h55.394531c4.140626 0 7.5-3.359376 7.5-7.5 0-4.140626-3.359374-7.5-7.5-7.5h-14.496093c-6.59375-12.671876-10.070313-26.734376-10.070313-40.945313 0-41.144531 18.246094-79.703125 50.066406-105.785156 31.816407-26.085938 73.203126-36.417969 113.550782-28.347657l51.753906 10.347657c-7.417969 4.507812-14.285156 10.230469-20.246094 17.554687-25.191406 30.964844-23.207031 77.527344 4.511719 106.003906 15.175781 15.589844 35.53125 24.117188 56.933594 24.117188 3.09375 0 6.214843-.179688 9.34375-.539062 4.113281-.476563 7.0625-4.199219 6.585937-8.3125-.472656-4.113282-4.1875-7.0625-8.308594-6.589844-20.089843 2.320312-39.707031-4.652344-53.804687-19.136719-22.5-23.113281-24.089844-60.921875-3.625-86.078125 21.839844-26.84375 61.417969-28.292969 90.320313-29.347656 11.992187-.4375 23.296874-5.371094 31.820312-13.898438l1.507812-1.507812 12.066407 12.066406-1.507813 1.507812c-8.523437 8.523438-13.460937 19.824219-13.898437 31.816407-.777344 21.316406-1.75 47.847656-12.457031 69.046875-1.867188 3.699218-.382813 8.207031 3.3125 10.078125 3.699218 1.867187 8.210937.382812 10.078124-3.316407 12.1875-24.132812 13.269532-53.683593 14.054688-75.261718.015625-.4375.046875-.878906.082031-1.316406 11.667969 4.941406 21.746094 12.839843 29.4375 23.160156 9.308594 12.480468 14.226563 27.316406 14.226563 42.894531 0 39.582031-32.207032 71.789063-71.789063 71.789063h-257.386719c-4.144531 0-7.5 3.355468-7.5 7.5 0 4.140624 3.355469 7.5 7.5 7.5h360.003907zm0 0"/></svg>