<?xml version="1.0" encoding="utf-8"?>
<!-- Generator: Adobe Illustrator 23.0.0, SVG Export Plug-In . SVG Version: 6.00 Build 0)  -->
<svg version="1.1" id="Layer_1" xmlns="http://www.w3.org/2000/svg" xmlns:xlink="http://www.w3.org/1999/xlink" x="0px" y="0px"
	 viewBox="0 0 512 512" style="enable-background:new 0 0 512 512;" xml:space="preserve">
<path d="M230.09,319.8c23.1,0,41.9-18.8,41.9-41.9c0-23.11-18.8-41.9-41.9-41.9c-23.11,0-41.9,18.8-41.9,41.9
	C188.18,301.01,206.98,319.8,230.09,319.8z M230.09,256.14c12,0,21.76,9.76,21.76,21.76s-9.76,21.76-21.76,21.76
	c-12.01,0-21.77-9.76-21.77-21.76C208.32,265.9,218.08,256.14,230.09,256.14z"/>
<path d="M141.09,182.8c23.1,0,41.9-18.8,41.9-41.9c0-23.11-18.8-41.9-41.9-41.9c-23.11,0-41.9,18.8-41.9,41.9
	C99.18,164.01,117.98,182.8,141.09,182.8z M141.09,119.14c12,0,21.76,9.76,21.76,21.76s-9.76,21.76-21.76,21.76
	c-12.01,0-21.77-9.76-21.77-21.76C119.32,128.9,129.08,119.14,141.09,119.14z"/>
<path d="M336.22,266.35c16.37,0,29.69-13.32,29.69-29.69s-13.32-29.69-29.69-29.69s-29.69,13.32-29.69,29.69
	S319.85,266.35,336.22,266.35z M336.22,227.1c5.27,0,9.56,4.29,9.56,9.55c0,5.27-4.29,9.56-9.56,9.56c-5.26,0-9.55-4.29-9.55-9.56
	C326.67,231.39,330.96,227.1,336.22,227.1z"/>
<path d="M292.22,148.83c16.37,0,29.69-13.32,29.69-29.69s-13.32-29.69-29.69-29.69s-29.69,13.32-29.69,29.69
	S275.85,148.83,292.22,148.83z M292.22,109.58c5.27,0,9.56,4.29,9.56,9.55c0,5.27-4.29,9.56-9.56,9.56c-5.26,0-9.55-4.29-9.55-9.56
	C282.67,113.87,286.96,109.58,292.22,109.58z"/>
<path d="M356.36,76.83c16.37,0,29.69-13.32,29.69-29.69s-13.32-29.69-29.69-29.69s-29.69,13.32-29.69,29.69
	S339.99,76.83,356.36,76.83z M356.36,37.58c5.27,0,9.56,4.29,9.56,9.55c0,5.27-4.29,9.56-9.56,9.56c-5.26,0-9.55-4.29-9.55-9.56
	C346.81,41.87,351.1,37.58,356.36,37.58z"/>
<path d="M292.22,466.35c16.37,0,29.69-13.32,29.69-29.69s-13.32-29.69-29.69-29.69s-29.69,13.32-29.69,29.69
	S275.85,466.35,292.22,466.35z M292.22,427.1c5.27,0,9.56,4.29,9.56,9.55c0,5.27-4.29,9.56-9.56,9.56c-5.26,0-9.55-4.29-9.55-9.56
	C282.67,431.39,286.96,427.1,292.22,427.1z"/>
<path d="M233.51,379.34c0-16.37-13.32-29.69-29.69-29.69s-29.69,13.32-29.69,29.69s13.32,29.69,29.69,29.69
	S233.51,395.71,233.51,379.34z M203.82,388.89c-5.27,0-9.55-4.29-9.55-9.55c0-5.27,4.28-9.56,9.55-9.56s9.55,4.29,9.55,9.56
	S209.09,388.89,203.82,388.89z"/>
</svg>
